<?xml version="1.0" encoding="UTF-8" standalone="no"?>
<!-- Created with Inkscape (http://www.inkscape.org/) -->
<svg
   xmlns:dc="http://purl.org/dc/elements/1.1/"
   xmlns:cc="http://creativecommons.org/ns#"
   xmlns:rdf="http://www.w3.org/1999/02/22-rdf-syntax-ns#"
   xmlns:svg="http://www.w3.org/2000/svg"
   xmlns="http://www.w3.org/2000/svg"
   xmlns:xlink="http://www.w3.org/1999/xlink"
   xmlns:sodipodi="http://sodipodi.sourceforge.net/DTD/sodipodi-0.dtd"
   xmlns:inkscape="http://www.inkscape.org/namespaces/inkscape"
   width="744.09448819"
   height="1052.3622047"
   id="svg2"
   sodipodi:version="0.32"
   inkscape:version="0.46"
   sodipodi:docname="17567.svg"
   inkscape:output_extension="org.inkscape.output.svg.inkscape"
   inkscape:export-filename="/Users/ravage/Desktop/ramaze.png"
   inkscape:export-xdpi="90"
   inkscape:export-ydpi="90">
  <defs
     id="defs4">
    <linearGradient
       id="linearGradient4858">
      <stop
         id="stop4860"
         offset="0"
         style="stop-color:#000000;stop-opacity:1;" />
      <stop
         style="stop-color:#000000;stop-opacity:0.97388059;"
         offset="0.5"
         id="stop4864" />
      <stop
         id="stop4862"
         offset="1"
         style="stop-color:#000000;stop-opacity:0;" />
    </linearGradient>
    <linearGradient
       inkscape:collect="always"
       id="linearGradient4781">
      <stop
         style="stop-color:#000000;stop-opacity:1;"
         offset="0"
         id="stop4783" />
      <stop
         style="stop-color:#000000;stop-opacity:0;"
         offset="1"
         id="stop4785" />
    </linearGradient>
    <linearGradient
       id="linearGradient4737">
      <stop
         style="stop-color:#000000;stop-opacity:1;"
         offset="0"
         id="stop4739" />
      <stop
         id="stop4879"
         offset="0.40074745"
         style="stop-color:#000000;stop-opacity:0.21641791;" />
      <stop
         id="stop4877"
         offset="0.57788944"
         style="stop-color:#ffffff;stop-opacity:0.09019608;" />
      <stop
         style="stop-color:#ffffff;stop-opacity:1;"
         offset="1"
         id="stop4741" />
    </linearGradient>
    <linearGradient
       id="linearGradient2495">
      <stop
         style="stop-color:#000000;stop-opacity:1;"
         offset="0"
         id="stop2497" />
      <stop
         id="stop2517"
         offset="0.5"
         style="stop-color:#ffffff;stop-opacity:1;" />
      <stop
         style="stop-color:#ffffff;stop-opacity:1;"
         offset="1"
         id="stop2499" />
    </linearGradient>
    <inkscape:perspective
       sodipodi:type="inkscape:persp3d"
       inkscape:vp_x="0 : 526.18109 : 1"
       inkscape:vp_y="0 : 1000 : 0"
       inkscape:vp_z="744.09448 : 526.18109 : 1"
       inkscape:persp3d-origin="372.04724 : 350.78739 : 1"
       id="perspective10" />
    <inkscape:perspective
       id="perspective2392"
       inkscape:persp3d-origin="372.04724 : 350.78739 : 1"
       inkscape:vp_z="744.09448 : 526.18109 : 1"
       inkscape:vp_y="0 : 1000 : 0"
       inkscape:vp_x="0 : 526.18109 : 1"
       sodipodi:type="inkscape:persp3d" />
    <radialGradient
       inkscape:collect="always"
       xlink:href="#linearGradient2495"
       id="radialGradient2501"
       cx="677.36414"
       cy="469.15915"
       fx="677.36414"
       fy="469.15915"
       r="33.336736"
       gradientTransform="matrix(4.9294047e-7,1.504967,-1.0001399,3.6047166e-7,1133.4504,-536.78144)"
       gradientUnits="userSpaceOnUse" />
    <linearGradient
       inkscape:collect="always"
       xlink:href="#linearGradient4737"
       id="linearGradient4743"
       x1="623.4662"
       y1="499.48436"
       x2="704.98567"
       y2="499.48436"
       gradientUnits="userSpaceOnUse" />
    <linearGradient
       inkscape:collect="always"
       xlink:href="#linearGradient4781"
       id="linearGradient4787"
       x1="664.22595"
       y1="463.25"
       x2="664.22595"
       y2="522.97491"
       gradientUnits="userSpaceOnUse" />
    <linearGradient
       inkscape:collect="always"
       xlink:href="#linearGradient4737"
       id="linearGradient4831"
       x1="515.26666"
       y1="208.21875"
       x2="515.26666"
       y2="267.84375"
       gradientUnits="userSpaceOnUse" />
    <linearGradient
       inkscape:collect="always"
       xlink:href="#linearGradient4737"
       id="linearGradient4846"
       gradientUnits="userSpaceOnUse"
       x1="515.26666"
       y1="208.21875"
       x2="515.26666"
       y2="267.84375" />
    <radialGradient
       inkscape:collect="always"
       xlink:href="#linearGradient4858"
       id="radialGradient4856"
       cx="506.99557"
       cy="307.77875"
       fx="506.99557"
       fy="307.77875"
       r="19.091883"
       gradientUnits="userSpaceOnUse" />
    <linearGradient
       inkscape:collect="always"
       xlink:href="#linearGradient4737"
       id="linearGradient4871"
       gradientUnits="userSpaceOnUse"
       x1="515.26666"
       y1="208.21875"
       x2="515.26666"
       y2="278.84375"
       gradientTransform="translate(0,23.000358)" />
    <radialGradient
       inkscape:collect="always"
       xlink:href="#linearGradient4858"
       id="radialGradient4893"
       gradientUnits="userSpaceOnUse"
       cx="506.99557"
       cy="307.77875"
       fx="506.99557"
       fy="307.77875"
       r="19.091883" />
    <linearGradient
       inkscape:collect="always"
       xlink:href="#linearGradient4737"
       id="linearGradient4895"
       gradientUnits="userSpaceOnUse"
       gradientTransform="translate(0,23.000358)"
       x1="515.26666"
       y1="208.21875"
       x2="515.26666"
       y2="278.84375" />
    <radialGradient
       inkscape:collect="always"
       xlink:href="#linearGradient4858"
       id="radialGradient2444"
       gradientUnits="userSpaceOnUse"
       cx="506.99557"
       cy="307.77875"
       fx="506.99557"
       fy="307.77875"
       r="19.091883" />
    <linearGradient
       inkscape:collect="always"
       xlink:href="#linearGradient4737"
       id="linearGradient2446"
       gradientUnits="userSpaceOnUse"
       gradientTransform="translate(0,23.000358)"
       x1="515.26666"
       y1="208.21875"
       x2="515.26666"
       y2="278.84375" />
    <radialGradient
       inkscape:collect="always"
       xlink:href="#linearGradient4858"
       id="radialGradient2474"
       gradientUnits="userSpaceOnUse"
       cx="506.99557"
       cy="307.77875"
       fx="506.99557"
       fy="307.77875"
       r="19.091883" />
    <linearGradient
       inkscape:collect="always"
       xlink:href="#linearGradient4737"
       id="linearGradient2476"
       gradientUnits="userSpaceOnUse"
       gradientTransform="translate(0,23.000358)"
       x1="515.26666"
       y1="208.21875"
       x2="515.26666"
       y2="278.84375" />
  </defs>
  <sodipodi:namedview
     id="base"
     pagecolor="#ffffff"
     bordercolor="#666666"
     borderopacity="1.0"
     gridtolerance="10000"
     guidetolerance="10"
     objecttolerance="10"
     inkscape:pageopacity="0.0"
     inkscape:pageshadow="2"
     inkscape:zoom="1"
     inkscape:cx="410.8299"
     inkscape:cy="570.52326"
     inkscape:document-units="px"
     inkscape:current-layer="layer1"
     showgrid="false"
     inkscape:window-width="1440"
     inkscape:window-height="852"
     inkscape:window-x="0"
     inkscape:window-y="0"
     showguides="true"
     inkscape:guide-bbox="true">
    <sodipodi:guide
       orientation="0,1"
       position="468,592"
       id="guide2490" />
    <sodipodi:guide
       orientation="0,1"
       position="445,644"
       id="guide2492" />
  </sodipodi:namedview>
  <metadata
     id="metadata7">
    <rdf:RDF>
      <cc:Work
         rdf:about="">
        <dc:format>image/svg+xml</dc:format>
        <dc:type
           rdf:resource="http://purl.org/dc/dcmitype/StillImage" />
      </cc:Work>
    </rdf:RDF>
  </metadata>
  <g
     inkscape:label="Layer 1"
     inkscape:groupmode="layer"
     id="layer1">
    <g
       id="g2557"
       transform="matrix(1.0030574,0,0,1.0030574,-169.65223,-86.11254)"
       inkscape:export-filename="/Users/ravage/Desktop/ramaze.png"
       inkscape:export-xdpi="90"
       inkscape:export-ydpi="90">
      <g
         transform="translate(-261.62951,137.17871)"
         id="g4881">
        <path
           sodipodi:type="arc"
           style="opacity:0.50760001;fill:url(#radialGradient2444);fill-opacity:1;stroke:none;stroke-width:14.84599972;stroke-linecap:round;stroke-linejoin:round;stroke-miterlimit:4;stroke-dasharray:none;stroke-opacity:1"
           id="path4833"
           sodipodi:cx="506.99557"
           sodipodi:cy="307.77875"
           sodipodi:rx="19.091883"
           sodipodi:ry="19.091883"
           d="M 526.08746,307.77875 A 19.091883,19.091883 0 1 1 487.90369,307.77875 A 19.091883,19.091883 0 1 1 526.08746,307.77875 z"
           transform="matrix(2.1111111,0,0,0.1944444,-555.05873,243.27523)" />
        <g
           id="g4805"
           transform="matrix(0.9747557,0,0,0.9747557,-132.19279,-220.34694)">
          <path
             id="path4807"
             d="M 664.21875,463.25 C 644.21825,463.25 627.96876,479.46826 627.96875,499.46875 C 627.96875,519.46925 644.21826,535.71873 664.21875,535.71875 L 664.21875,517.3125 C 654.37395,517.31248 646.375,509.31356 646.375,499.46875 C 646.37499,489.62394 654.37394,481.65625 664.21875,481.65625 C 670.25824,481.65626 675.58558,484.65248 678.8125,489.25 L 693.875,478.6875 C 686.86445,468.67539 676.44129,463.25 664.21875,463.25 z"
             style="opacity:1;fill:#ee1133;fill-opacity:1;stroke:none;stroke-width:14.84599972;stroke-linecap:round;stroke-linejoin:round;stroke-miterlimit:4;stroke-dasharray:none;stroke-opacity:1" />
          <path
             id="path4809"
             d="M 693.875,478.6875 L 678.8125,489.25 C 680.84569,492.14677 682.03125,495.66344 682.03125,499.46875 C 682.03126,504.95029 679.58258,509.88382 675.6875,513.15625 L 687.5,527.25 C 701.97009,515.10815 704.70949,494.16075 693.875,478.6875 z"
             style="opacity:1;fill:#668092;fill-opacity:1;stroke:none;stroke-width:14.84599972;stroke-linecap:round;stroke-linejoin:round;stroke-miterlimit:4;stroke-dasharray:none;stroke-opacity:1" />
          <path
             id="path4811"
             d="M 675.6875,513.15625 C 672.58704,515.76108 668.58201,517.3125 664.21875,517.3125 L 664.21875,535.71875 C 673.10786,535.71875 680.69057,532.9638 687.5,527.25 L 675.6875,513.15625 z"
             style="opacity:1;fill:#a1b2bd;fill-opacity:1;stroke:none;stroke-width:14.84599972;stroke-linecap:round;stroke-linejoin:round;stroke-miterlimit:4;stroke-dasharray:none;stroke-opacity:1" />
        </g>
        <path
           style="fill:url(#linearGradient2446);fill-opacity:1;stroke:none;stroke-width:14.84599972;stroke-linecap:round;stroke-linejoin:round;stroke-miterlimit:4;stroke-dasharray:none;stroke-opacity:1"
           d="M 515.25,231.21911 C 495.75438,231.21911 479.93751,247.00477 479.9375,266.50036 C 479.93749,285.99596 495.75441,301.84409 515.25,301.84411 C 523.91469,301.84412 531.29997,299.16367 537.9375,293.59411 C 552.04234,281.75877 554.71723,261.333 544.15625,246.25036 C 537.32267,236.491 527.16399,231.21911 515.25,231.21911 z M 515.25,249.15661 C 521.13701,249.1566 526.32329,252.0814 529.46875,256.56286 C 531.4506,259.3865 532.625,262.79111 532.625,266.50036 C 532.62504,271.84352 530.23425,276.65429 526.4375,279.84411 C 523.41532,282.38318 519.50312,283.90661 515.25,283.90661 C 505.65371,283.90659 497.875,276.09665 497.875,266.50036 C 497.87499,256.90408 505.65372,249.15661 515.25,249.15661 z"
           id="path4815" />
        <g
           id="g2433"
           transform="matrix(1.098869,0,0,1.098869,-214.63204,-282.33958)">
          <path
             id="path2398"
             d="M 664.21875,463.25 C 644.21825,463.25 627.96876,479.46826 627.96875,499.46875 C 627.96875,519.46925 644.21826,535.71873 664.21875,535.71875 L 664.21875,517.3125 C 654.37395,517.31248 646.375,509.31356 646.375,499.46875 C 646.37499,489.62394 654.37394,481.65625 664.21875,481.65625 C 670.25824,481.65626 675.58558,484.65248 678.8125,489.25 L 693.875,478.6875 C 686.86445,468.67539 676.44129,463.25 664.21875,463.25 z"
             style="opacity:1;fill:#ee1133;fill-opacity:1;stroke:none;stroke-width:14.84599972;stroke-linecap:round;stroke-linejoin:round;stroke-miterlimit:4;stroke-dasharray:none;stroke-opacity:1" />
          <path
             id="path2402"
             d="M 693.875,478.6875 L 678.8125,489.25 C 680.84569,492.14677 682.03125,495.66344 682.03125,499.46875 C 682.03126,504.95029 679.58258,509.88382 675.6875,513.15625 L 687.5,527.25 C 701.97009,515.10815 704.70949,494.16075 693.875,478.6875 z"
             style="opacity:1;fill:#668092;fill-opacity:1;stroke:none;stroke-width:14.84599972;stroke-linecap:round;stroke-linejoin:round;stroke-miterlimit:4;stroke-dasharray:none;stroke-opacity:1" />
          <path
             id="path2404"
             d="M 675.6875,513.15625 C 672.58704,515.76108 668.58201,517.3125 664.21875,517.3125 L 664.21875,535.71875 C 673.10786,535.71875 680.69057,532.9638 687.5,527.25 L 675.6875,513.15625 z"
             style="opacity:1;fill:#a1b2bd;fill-opacity:1;stroke:none;stroke-width:14.84599972;stroke-linecap:round;stroke-linejoin:round;stroke-miterlimit:4;stroke-dasharray:none;stroke-opacity:1" />
        </g>
      </g>
      <path
         id="text2478"
         d="M 313.97607,408.48785 C 313.97607,405.31467 311.26725,403.45718 307.70709,403.45718 C 306.46878,403.45718 305.23045,403.76676 303.91474,404.15373 C 304.22432,404.46331 305.84961,408.56527 305.84961,424.27641 C 305.84961,428.53311 305.61742,433.09942 305.46263,437.74311 C 305.46263,442.54159 307.47491,443.70251 310.33851,443.70251 C 311.9638,443.70251 313.82129,443.23814 315.75615,442.92857 C 315.60136,442.85117 313.97607,440.06494 313.97607,424.81817 C 313.97607,415.76298 314.67263,409.57138 322.72169,409.57138 C 324.96613,409.57138 326.90102,410.03576 328.21672,411.58365 C 328.83588,410.34532 329.22286,408.87482 329.22286,407.55911 C 329.22286,405.31467 328.13933,403.45718 325.4305,403.45718 C 321.25119,403.45718 315.91094,406.47559 313.74389,411.35145 C 313.74389,411.27407 313.66648,411.19668 313.66648,411.04189 C 313.66648,410.26793 313.97607,408.48785 313.97607,408.48785 M 342.04864,444.01209 C 347.15669,444.01209 352.41956,440.91629 353.96745,437.74311 L 354.04484,437.8205 C 353.50308,441.69025 356.90845,443.70251 360.46862,443.70251 C 364.95751,443.70251 368.59507,441.30326 368.59507,438.59445 C 367.12458,439.75537 365.96365,440.29715 364.95751,440.29715 C 362.32609,440.29715 361.86172,435.03428 361.86172,430.23581 C 361.86172,425.97909 362.1713,420.79363 362.1713,416.6917 C 362.1713,410.34534 360.85557,403.37979 349.01418,403.37979 C 342.35822,403.37979 335.62487,406.63038 335.39267,412.58978 C 337.86931,409.72617 342.04864,407.63651 345.76359,407.63651 C 352.88391,407.63651 353.96745,413.36373 353.96745,418.317 L 353.96745,419.40053 C 345.37662,419.55532 332.29688,422.49634 332.29688,433.71857 C 332.29688,439.13621 335.2379,444.01209 342.04864,444.01209 M 353.65787,436.19521 C 352.34215,437.12395 348.54981,438.36227 345.99577,438.36227 C 342.04864,438.36227 340.11376,435.18908 340.11376,432.24807 C 340.11376,424.04423 350.40728,422.7285 353.96745,422.10934 C 353.81266,425.97909 353.58048,432.71244 353.65787,436.19521 M 373.68499,404.15373 C 373.68499,404.15373 374.84591,404.8503 375.23288,412.3576 C 375.38767,416.07254 375.54247,420.09708 375.54247,423.96683 C 375.54247,437.82049 374.22675,442.69638 373.68499,442.92857 C 375.54247,443.31554 377.55474,443.70251 379.18003,443.70251 C 381.88885,443.70251 384.0559,442.61898 384.0559,438.43966 C 384.0559,433.48639 383.74633,428.76531 383.74633,424.43119 C 383.74633,420.25187 383.82372,416.45951 384.0559,413.13154 C 384.0559,410.11314 389.08658,407.48172 393.18849,407.48172 C 395.89732,407.48172 397.90958,408.79743 398.06437,412.43499 C 398.21916,416.07254 398.37395,420.09708 398.37395,424.19901 C 398.37395,428.53311 398.06437,433.5638 398.06437,437.97529 C 398.06437,442.77377 402.94025,443.9347 402.94025,443.9347 C 402.94025,443.9347 406.7326,443.00595 406.7326,435.65345 C 406.7326,435.73085 406.57781,430.85497 406.57781,428.84269 C 406.57781,423.50246 406.81,418.2396 406.88739,411.58365 C 408.89965,409.41659 412.45982,407.48172 415.24603,407.48172 C 417.95486,407.48172 420.74107,408.79743 420.89586,412.43499 C 421.05065,416.07254 421.20544,420.09708 421.20544,424.19901 C 421.20544,428.53311 420.89586,433.02202 420.89586,437.43353 C 420.89586,442.07722 424.30124,443.70251 428.24837,443.70251 C 432.73727,443.70251 436.37483,441.30326 436.37483,438.59445 C 434.90434,439.75537 433.7434,440.29715 432.73727,440.29715 C 429.71888,440.29715 429.3319,435.57604 429.3319,429.61665 C 429.3319,423.81204 429.71888,417.31085 429.71888,409.88095 C 429.71888,405.23727 424.06905,403.37979 418.72881,403.37979 C 414.00772,403.37979 409.28663,405.70164 406.65521,408.48785 C 405.80387,404.8503 401.39235,403.37979 396.67127,403.37979 C 390.40229,403.37979 384.90725,405.93383 383.51414,409.72617 L 383.74633,408.48785 C 383.74633,405.31467 381.03751,403.45718 377.47734,403.45718 C 376.23903,403.45718 375.00071,403.76676 373.68499,404.15373 M 449.37355,444.01209 C 454.48161,444.01209 459.74446,440.91629 461.29236,437.74311 L 461.36975,437.8205 C 460.82799,441.69025 464.23337,443.70251 467.79352,443.70251 C 472.28243,443.70251 475.91998,441.30326 475.91998,438.59445 C 474.44948,439.75537 473.28856,440.29715 472.28243,440.29715 C 469.651,440.29715 469.18663,435.03428 469.18663,430.23581 C 469.18663,425.97909 469.49621,420.79363 469.49621,416.6917 C 469.49621,410.34534 468.18049,403.37979 456.33908,403.37979 C 449.68313,403.37979 442.94978,406.63038 442.71759,412.58978 C 445.19422,409.72617 449.37355,407.63651 453.08851,407.63651 C 460.20883,407.63651 461.29236,413.36373 461.29236,418.317 L 461.29236,419.40053 C 452.70154,419.55532 439.62179,422.49634 439.62179,433.71857 C 439.62179,439.13621 442.56281,444.01209 449.37355,444.01209 M 460.98278,436.19521 C 459.66707,437.12395 455.87471,438.36227 453.32069,438.36227 C 449.37355,438.36227 447.43868,435.18908 447.43868,432.24807 C 447.43868,424.04423 457.73219,422.7285 461.29236,422.10934 C 461.13757,425.97909 460.90538,432.71244 460.98278,436.19521 M 491.14863,436.4274 C 493.78006,431.47413 501.75173,417.93002 507.94332,409.10701 C 508.94945,407.63651 509.10424,406.08861 509.10424,405.15988 L 509.10424,404.23113 L 494.86359,404.23113 C 483.02218,404.23113 479.15244,403.45718 479.15244,403.45718 C 479.15244,406.70777 480.46815,408.72003 483.95091,408.72003 L 495.71493,407.94609 C 497.41761,407.86869 499.66207,407.48172 499.66207,407.48172 C 496.48888,413.6733 484.57006,433.02202 480.77773,438.36227 C 480.08116,439.3684 479.92637,440.68412 479.92637,441.53546 C 479.92637,442.15462 480.00378,442.23201 480.00378,442.92857 L 494.16703,442.92857 C 506.93718,442.92857 510.96172,443.70251 510.96172,443.70251 C 510.96172,440.45194 509.5686,438.36227 506.08584,438.36227 L 492.46435,439.13621 C 490.1425,439.291 488.90418,439.60058 488.90418,439.60058 C 489.52334,438.74924 490.52947,437.58832 491.14863,436.4274 M 548.38334,432.01589 C 544.90058,436.35 540.56644,438.28487 536.9289,438.28487 C 531.20168,438.28487 525.93882,433.56378 524.7779,425.59212 C 524.62311,424.66338 524.46832,423.03809 524.08135,422.03195 L 524.15874,421.95455 C 525.70664,424.12161 530.35034,425.05035 533.52353,425.05035 C 540.33427,425.05035 548.07376,422.26413 548.46073,414.52465 C 548.46073,409.2618 544.51358,403.45718 534.60705,403.45718 C 523.07523,403.45718 516.26447,414.52466 516.26447,425.05035 C 516.26447,434.56991 521.9917,443.70251 532.90436,443.70251 C 536.92889,443.70251 541.4178,442.61899 544.2814,440.21974 C 548.38333,436.81437 548.30594,432.09328 548.38334,432.01589 M 531.97562,421.18061 C 529.65378,421.18061 524.70051,420.32926 524.23614,419.16834 C 525.16488,412.58979 527.56413,407.01735 533.21395,407.01735 C 538.55418,407.01735 540.41167,410.80969 540.41167,414.44725 C 540.41167,419.24573 535.92276,421.18061 531.97562,421.18061"
         style="font-size:60.30473328px;font-style:normal;font-variant:normal;font-weight:normal;font-stretch:normal;text-align:start;line-height:125%;writing-mode:lr-tb;text-anchor:start;fill:#000000;fill-opacity:1;stroke:none;stroke-width:1px;stroke-linecap:butt;stroke-linejoin:miter;stroke-opacity:1;font-family:Fertigo;-inkscape-font-specification:Fertigo" />
    </g>
    <g
       id="g2494"
       inkscape:export-filename="/Users/ravage/Arquivo/Escola/ISMAI/SIS/Ano 3/Segundo Semestre/Programação Avançada/soundtape/public/imgs/ramaze_logo.png"
       inkscape:export-xdpi="90"
       inkscape:export-ydpi="90">
      <g
         transform="matrix(1.0030574,0,0,1.0030574,-434.48967,163.77411)"
         id="g2450">
        <path
           sodipodi:type="arc"
           style="opacity:0.50760001;fill:url(#radialGradient2474);fill-opacity:1;stroke:none;stroke-width:14.84599972;stroke-linecap:round;stroke-linejoin:round;stroke-miterlimit:4;stroke-dasharray:none;stroke-opacity:1"
           id="path2452"
           sodipodi:cx="506.99557"
           sodipodi:cy="307.77875"
           sodipodi:rx="19.091883"
           sodipodi:ry="19.091883"
           d="M 526.08746,307.77875 A 19.091883,19.091883 0 1 1 487.90369,307.77875 A 19.091883,19.091883 0 1 1 526.08746,307.77875 z"
           transform="matrix(2.1111111,0,0,0.1944444,-555.05873,243.27523)" />
        <g
           id="g2454"
           transform="matrix(0.9747557,0,0,0.9747557,-132.19279,-220.34694)">
          <path
             id="path2456"
             d="M 664.21875,463.25 C 644.21825,463.25 627.96876,479.46826 627.96875,499.46875 C 627.96875,519.46925 644.21826,535.71873 664.21875,535.71875 L 664.21875,517.3125 C 654.37395,517.31248 646.375,509.31356 646.375,499.46875 C 646.37499,489.62394 654.37394,481.65625 664.21875,481.65625 C 670.25824,481.65626 675.58558,484.65248 678.8125,489.25 L 693.875,478.6875 C 686.86445,468.67539 676.44129,463.25 664.21875,463.25 z"
             style="opacity:1;fill:#ee1133;fill-opacity:1;stroke:none;stroke-width:14.84599972;stroke-linecap:round;stroke-linejoin:round;stroke-miterlimit:4;stroke-dasharray:none;stroke-opacity:1" />
          <path
             id="path2458"
             d="M 693.875,478.6875 L 678.8125,489.25 C 680.84569,492.14677 682.03125,495.66344 682.03125,499.46875 C 682.03126,504.95029 679.58258,509.88382 675.6875,513.15625 L 687.5,527.25 C 701.97009,515.10815 704.70949,494.16075 693.875,478.6875 z"
             style="opacity:1;fill:#668092;fill-opacity:1;stroke:none;stroke-width:14.84599972;stroke-linecap:round;stroke-linejoin:round;stroke-miterlimit:4;stroke-dasharray:none;stroke-opacity:1" />
          <path
             id="path2460"
             d="M 675.6875,513.15625 C 672.58704,515.76108 668.58201,517.3125 664.21875,517.3125 L 664.21875,535.71875 C 673.10786,535.71875 680.69057,532.9638 687.5,527.25 L 675.6875,513.15625 z"
             style="opacity:1;fill:#a1b2bd;fill-opacity:1;stroke:none;stroke-width:14.84599972;stroke-linecap:round;stroke-linejoin:round;stroke-miterlimit:4;stroke-dasharray:none;stroke-opacity:1" />
        </g>
        <path
           style="fill:url(#linearGradient2476);fill-opacity:1;stroke:none;stroke-width:14.84599972;stroke-linecap:round;stroke-linejoin:round;stroke-miterlimit:4;stroke-dasharray:none;stroke-opacity:1"
           d="M 515.25,231.21911 C 495.75438,231.21911 479.93751,247.00477 479.9375,266.50036 C 479.93749,285.99596 495.75441,301.84409 515.25,301.84411 C 523.91469,301.84412 531.29997,299.16367 537.9375,293.59411 C 552.04234,281.75877 554.71723,261.333 544.15625,246.25036 C 537.32267,236.491 527.16399,231.21911 515.25,231.21911 z M 515.25,249.15661 C 521.13701,249.1566 526.32329,252.0814 529.46875,256.56286 C 531.4506,259.3865 532.625,262.79111 532.625,266.50036 C 532.62504,271.84352 530.23425,276.65429 526.4375,279.84411 C 523.41532,282.38318 519.50312,283.90661 515.25,283.90661 C 505.65371,283.90659 497.875,276.09665 497.875,266.50036 C 497.87499,256.90408 505.65372,249.15661 515.25,249.15661 z"
           id="path2462" />
        <g
           id="g2464"
           transform="matrix(1.098869,0,0,1.098869,-214.63204,-282.33958)">
          <path
             id="path2466"
             d="M 664.21875,463.25 C 644.21825,463.25 627.96876,479.46826 627.96875,499.46875 C 627.96875,519.46925 644.21826,535.71873 664.21875,535.71875 L 664.21875,517.3125 C 654.37395,517.31248 646.375,509.31356 646.375,499.46875 C 646.37499,489.62394 654.37394,481.65625 664.21875,481.65625 C 670.25824,481.65626 675.58558,484.65248 678.8125,489.25 L 693.875,478.6875 C 686.86445,468.67539 676.44129,463.25 664.21875,463.25 z"
             style="opacity:1;fill:#ee1133;fill-opacity:1;stroke:none;stroke-width:14.84599972;stroke-linecap:round;stroke-linejoin:round;stroke-miterlimit:4;stroke-dasharray:none;stroke-opacity:1" />
          <path
             id="path2468"
             d="M 693.875,478.6875 L 678.8125,489.25 C 680.84569,492.14677 682.03125,495.66344 682.03125,499.46875 C 682.03126,504.95029 679.58258,509.88382 675.6875,513.15625 L 687.5,527.25 C 701.97009,515.10815 704.70949,494.16075 693.875,478.6875 z"
             style="opacity:1;fill:#668092;fill-opacity:1;stroke:none;stroke-width:14.84599972;stroke-linecap:round;stroke-linejoin:round;stroke-miterlimit:4;stroke-dasharray:none;stroke-opacity:1" />
          <path
             id="path2470"
             d="M 675.6875,513.15625 C 672.58704,515.76108 668.58201,517.3125 664.21875,517.3125 L 664.21875,535.71875 C 673.10786,535.71875 680.69057,532.9638 687.5,527.25 L 675.6875,513.15625 z"
             style="opacity:1;fill:#a1b2bd;fill-opacity:1;stroke:none;stroke-width:14.84599972;stroke-linecap:round;stroke-linejoin:round;stroke-miterlimit:4;stroke-dasharray:none;stroke-opacity:1" />
        </g>
      </g>
      <path
         id="path2472"
         d="M 140.87577,419.91275 C 140.87577,416.72987 138.15867,414.8667 134.58762,414.8667 C 133.34553,414.8667 132.10341,415.17723 130.78368,415.56538 C 131.09421,415.87591 132.72446,419.99041 132.72446,435.74959 C 132.72446,440.0193 132.49156,444.59957 132.3363,449.25746 C 132.3363,454.07061 134.35473,455.23508 137.22709,455.23508 C 138.85735,455.23508 140.72052,454.76929 142.66129,454.45877 C 142.50603,454.38114 140.87577,451.58639 140.87577,436.293 C 140.87577,427.21013 141.57446,420.9996 149.64813,420.9996 C 151.89943,420.9996 153.84024,421.4654 155.15996,423.01802 C 155.78101,421.7759 156.16918,420.30091 156.16918,418.98117 C 156.16918,416.72987 155.08233,414.8667 152.36522,414.8667 C 148.17313,414.8667 142.81656,417.89434 140.64288,422.78511 C 140.64288,422.70749 140.56523,422.62987 140.56523,422.4746 C 140.56523,421.69828 140.87577,419.91275 140.87577,419.91275 M 169.03417,455.54561 C 174.15784,455.54561 179.4368,452.44034 180.98942,449.25746 L 181.06705,449.33509 C 180.52363,453.21667 183.93941,455.23508 187.51047,455.23508 C 192.01308,455.23508 195.66176,452.82849 195.66176,450.1114 C 194.18678,451.27587 193.0223,451.81931 192.01308,451.81931 C 189.37362,451.81931 188.90783,446.54035 188.90783,441.72721 C 188.90783,437.45747 189.21835,432.25616 189.21835,428.14169 C 189.21835,421.77592 187.8986,414.78908 176.02101,414.78908 C 169.3447,414.78908 162.59076,418.0496 162.35785,424.02722 C 164.84206,421.15486 169.03417,419.05881 172.76048,419.05881 C 179.90257,419.05881 180.98942,424.80354 180.98942,429.77196 L 180.98942,430.8588 C 172.37232,431.01406 159.25259,433.96407 159.25259,445.22061 C 159.25259,450.65482 162.20261,455.54561 169.03417,455.54561 M 180.67889,447.70483 C 179.35915,448.63641 175.55522,449.87851 172.99337,449.87851 C 169.03417,449.87851 167.09337,446.69562 167.09337,443.74562 C 167.09337,435.5167 177.41837,434.19694 180.98942,433.57589 C 180.83416,437.45747 180.60127,444.21141 180.67889,447.70483 M 200.76724,415.56538 C 200.76724,415.56538 201.93171,416.26408 202.31987,423.79434 C 202.47513,427.52063 202.6304,431.55748 202.6304,435.43906 C 202.6304,449.33508 201.31066,454.22587 200.76724,454.45877 C 202.6304,454.84693 204.64883,455.23508 206.27909,455.23508 C 208.99619,455.23508 211.16986,454.14824 211.16986,449.95614 C 211.16986,444.98772 210.85935,440.25221 210.85935,435.90484 C 210.85935,431.71274 210.93697,427.90879 211.16986,424.57064 C 211.16986,421.54301 216.21592,418.90355 220.33037,418.90355 C 223.04749,418.90355 225.0659,420.22328 225.22116,423.87196 C 225.37643,427.52063 225.53169,431.55748 225.53169,435.67195 C 225.53169,440.0193 225.22116,445.06537 225.22116,449.49035 C 225.22116,454.3035 230.11195,455.46798 230.11195,455.46798 C 230.11195,455.46798 233.91589,454.53639 233.91589,447.16141 C 233.91589,447.23905 233.76063,442.34826 233.76063,440.32983 C 233.76063,434.97327 233.99353,429.69432 234.07116,423.01802 C 236.08957,420.84433 239.66062,418.90355 242.45535,418.90355 C 245.17247,418.90355 247.96719,420.22328 248.12246,423.87196 C 248.27772,427.52063 248.43298,431.55748 248.43298,435.67195 C 248.43298,440.0193 248.12246,444.52193 248.12246,448.94693 C 248.12246,453.60482 251.53825,455.23508 255.49745,455.23508 C 260.00007,455.23508 263.64875,452.82849 263.64875,450.1114 C 262.17377,451.27587 261.00928,451.81931 260.00007,451.81931 C 256.97245,451.81931 256.58429,447.08376 256.58429,441.10615 C 256.58429,435.2838 256.97245,428.76273 256.97245,421.31011 C 256.97245,416.65224 251.30535,414.78908 245.94878,414.78908 C 241.21326,414.78908 236.47773,417.11803 233.83827,419.91275 C 232.98432,416.26408 228.55932,414.78908 223.8238,414.78908 C 217.53566,414.78908 212.02382,417.35093 210.62645,421.15486 L 210.85935,419.91275 C 210.85935,416.72987 208.14224,414.8667 204.57119,414.8667 C 203.32909,414.8667 202.08699,415.17723 200.76724,415.56538 M 276.68721,455.54561 C 281.81089,455.54561 287.08983,452.44034 288.64247,449.25746 L 288.72009,449.33509 C 288.17668,453.21667 291.59247,455.23508 295.1635,455.23508 C 299.66614,455.23508 303.31481,452.82849 303.31481,450.1114 C 301.83981,451.27587 300.67534,451.81931 299.66614,451.81931 C 297.02666,451.81931 296.56087,446.54035 296.56087,441.72721 C 296.56087,437.45747 296.8714,432.25616 296.8714,428.14169 C 296.8714,421.77592 295.55166,414.78908 283.67404,414.78908 C 276.99774,414.78908 270.2438,418.0496 270.0109,424.02722 C 272.49511,421.15486 276.68721,419.05881 280.41353,419.05881 C 287.55562,419.05881 288.64247,424.80354 288.64247,429.77196 L 288.64247,430.8588 C 280.02538,431.01406 266.90564,433.96407 266.90564,445.22061 C 266.90564,450.65482 269.85565,455.54561 276.68721,455.54561 M 288.33194,447.70483 C 287.01221,448.63641 283.20825,449.87851 280.64642,449.87851 C 276.68721,449.87851 274.74643,446.69562 274.74643,443.74562 C 274.74643,435.5167 285.07141,434.19694 288.64247,433.57589 C 288.4872,437.45747 288.2543,444.21141 288.33194,447.70483 M 318.59002,447.93773 C 321.22949,442.96931 329.22554,429.38379 335.43606,420.53381 C 336.44526,419.05881 336.60053,417.50618 336.60053,416.57461 L 336.60053,415.64302 L 322.31634,415.64302 C 310.43872,415.64302 306.55715,414.8667 306.55715,414.8667 C 306.55715,418.12723 307.87688,420.14564 311.37029,420.14564 L 323.17028,419.36934 C 324.87816,419.2917 327.12949,418.90355 327.12949,418.90355 C 323.9466,425.11406 311.99133,444.52193 308.18741,449.87851 C 307.48871,450.88772 307.33345,452.20746 307.33345,453.0614 C 307.33345,453.68246 307.41109,453.76008 307.41109,454.45877 L 321.61765,454.45877 C 334.42684,454.45877 338.46368,455.23508 338.46368,455.23508 C 338.46368,451.97457 337.06631,449.87851 333.5729,449.87851 L 319.90976,450.65482 C 317.58081,450.81008 316.33871,451.12061 316.33871,451.12061 C 316.95976,450.26666 317.96896,449.1022 318.59002,447.93773 M 375.99972,443.51273 C 372.50631,447.86009 368.15892,449.80088 364.51026,449.80088 C 358.76553,449.80088 353.48658,445.06535 352.32211,437.06932 C 352.16684,436.13774 352.01158,434.50748 351.62343,433.49826 L 351.70105,433.42063 C 353.25369,435.59431 357.91158,436.52589 361.09447,436.52589 C 367.92604,436.52589 375.68919,433.73115 376.07734,425.96801 C 376.07734,420.68907 372.11813,414.8667 362.18131,414.8667 C 350.61423,414.8667 343.78265,425.96802 343.78265,436.52589 C 343.78265,446.07456 349.52739,455.23508 360.47341,455.23508 C 364.51025,455.23508 369.01288,454.14825 371.88524,451.74166 C 375.99971,448.32588 375.92208,443.59035 375.99972,443.51273 M 359.54183,432.64432 C 357.21289,432.64432 352.24448,431.79037 351.77869,430.6259 C 352.71027,424.02724 355.11685,418.43776 360.78395,418.43776 C 366.14051,418.43776 368.00367,422.24169 368.00367,425.89037 C 368.00367,430.70352 363.50104,432.64432 359.54183,432.64432"
         style="font-size:60.30473328px;font-style:normal;font-variant:normal;font-weight:normal;font-stretch:normal;text-align:start;line-height:125%;writing-mode:lr-tb;text-anchor:start;fill:#000000;fill-opacity:1;stroke:none;stroke-width:1px;stroke-linecap:butt;stroke-linejoin:miter;stroke-opacity:1;font-family:Fertigo;-inkscape-font-specification:Fertigo" />
    </g>
  </g>
</svg>
